<svg width="100" height="40" viewBox="0 0 100 40" fill="none" xmlns="http://www.w3.org/2000/svg">
<path d="M36.4373 22.227L37.21 19.3011C37.2621 19.1014 37.4271 18.9581 37.6008 18.9581H39.0594C39.2938 18.9581 39.4457 19.2143 39.3763 19.4834L37.3403 27.2063C37.2708 27.4754 37.4228 27.7315 37.6572 27.7315H38.686C41.473 27.7315 44.069 25.4351 44.9112 22.2227L49.9599 3.03059C50.0294 2.76144 49.8774 2.50532 49.643 2.50532H48.6098C45.8272 2.50532 43.2312 4.80177 42.3847 8.00985L41.8767 9.93297C41.8247 10.1327 41.6597 10.2759 41.486 10.2759H40.0274C39.793 10.2759 39.6411 10.0198 39.7105 9.75064L41.4817 3.02625C41.5512 2.7571 41.3992 2.50098 41.1648 2.50098H40.1316C37.3446 2.50098 34.7486 4.79743 33.9065 8.00985L28.8577 27.2019C28.7883 27.4711 28.9402 27.7272 29.1746 27.7272H30.2122C32.9948 27.7272 35.5908 25.4351 36.4373 22.227Z" fill="black"/>
<path d="M18.83 23.3862C27.0694 23.3862 29.5742 19.8091 31.2543 13.5058C32.9473 7.07664 32.3395 3.54297 24.0958 3.54297C15.852 3.54297 13.3949 7.07664 11.7019 13.5102C10.0219 19.8135 10.66 23.3906 18.83 23.3906V23.3862ZM19.772 13.0587C20.2452 11.2702 20.3798 10.3108 22.1726 10.3108C23.9655 10.3108 23.5575 11.2702 23.0843 13.0587C22.6024 14.9124 22.4852 15.6807 20.7488 15.6807C19.0123 15.6807 19.2945 14.9124 19.772 13.0587Z" fill="black"/>
<path d="M17.8579 24.0371H16.4861C13.6904 24.0371 11.0858 26.3509 10.2523 29.5807L9.06715 35.4108C8.78932 36.4874 9.40142 37.4989 10.3348 37.4989H36.4683C39.2596 37.4989 41.8556 35.1938 42.6978 31.977L43.2187 29.9888C43.2882 29.7196 43.1362 29.4635 42.9018 29.4635H17.6452C17.4108 29.4635 17.2588 29.2074 17.3283 28.9382L18.1705 24.5624C18.2443 24.2932 18.088 24.0371 17.8536 24.0371H17.8579Z" fill="black"/>
<path d="M88.6436 0.768555H86.4948C83.7165 0.768555 81.1248 3.05632 80.274 6.25572L75.4683 22.8258C75.4162 23.0255 75.2513 23.1687 75.0776 23.1687H54.631C51.844 23.1687 49.2437 25.4738 48.4015 28.6863L48.0542 30.019H73.046C73.3282 30.019 73.5322 30.2838 73.4671 30.5573L73.2891 31.2823C73.2891 31.2823 73.2891 31.2823 73.2891 31.2866L71.3399 38.7056C71.2705 38.9747 71.4224 39.2308 71.6568 39.2308H78.2727C78.4464 39.2308 78.607 39.0876 78.6634 38.8879L88.9605 1.29383C89.03 1.02468 88.8781 0.768555 88.6436 0.768555Z" fill="black"/>
<path d="M76.1975 14.4434H72.6769C72.4468 14.4434 72.2905 14.196 72.36 13.9268L73.3454 9.92865C75.9284 9.92865 78.342 7.81453 79.1538 4.8452L79.5315 3.46907C79.6053 3.19992 79.4533 2.93945 79.2146 2.93945H60.5131C57.7217 2.93945 55.1257 5.24459 54.2836 8.46135L54.0361 9.40772C53.9667 9.67687 54.1186 9.93299 54.353 9.93299H58.5292C58.7592 9.93299 58.9155 10.1804 58.8461 10.4496L57.8606 14.4478H57.4873C54.7003 14.4478 52.1 16.7485 51.2578 19.961L50.8931 21.3458C50.8237 21.6149 50.9756 21.8711 51.21 21.8711H69.9203C72.7072 21.8711 75.3076 19.5703 76.1498 16.3578L76.5144 14.973C76.5839 14.7039 76.4319 14.4478 76.1975 14.4478V14.4434ZM65.0018 14.4434H64.6675C64.1987 14.4434 63.8904 13.9355 64.0337 13.3929L64.6545 11.0487C64.7587 10.6493 65.0843 10.3628 65.4315 10.3628H65.7658C66.2346 10.3628 66.5429 10.8707 66.3996 11.4133L65.7788 13.7575C65.6746 14.1569 65.3491 14.4434 65.0018 14.4434Z" fill="black"/>
<path d="M88.896 39.1396H82.8488C82.5623 39.1396 82.3539 38.8661 82.4321 38.5883L83.3133 35.3802C83.8299 33.4961 85.5447 32.1895 87.4982 32.1895H90.5673C90.8538 32.1895 91.0622 32.4629 90.9841 32.7408L89.3127 38.8183C89.2607 39.005 89.0914 39.1352 88.896 39.1352V39.1396Z" fill="#EC4700"/>
</svg>
