<svg width="160" height="54" viewBox="0 0 160 54" fill="none" xmlns="http://www.w3.org/2000/svg">
<rect width="160" height="54" rx="27" fill="white" fill-opacity="0.2"/>
<path d="M60.1282 18.6211V24.5977H62.4837V26.4785H60.1282V34.6172H57.8782V18.6211H60.1282ZM50.2493 19.8867V23.7891H53.5716V19.8867H55.804V30.9082H48.0169V19.8867H50.2493ZM50.2493 29.0977H53.5716V25.5293H50.2493V29.0977ZM77.3463 30.9961V32.8418H62.7038V30.9961H68.8737V28.5879H64.3913V23.209H73.444V21.4512H64.3737V19.6582H75.6588V24.9668H66.6413V26.7598H76.028V28.5879H71.1061V30.9961H77.3463ZM94.3099 18.6211V24.7559H96.5775V26.6016H94.3099V34.582H92.0599V18.6211H94.3099ZM90.0384 20.2559C90.0209 25.0371 88.1576 29.1855 82.7787 31.8223L81.513 30.0996C85.3011 28.2012 87.3314 25.6523 87.7533 22.084H82.4271V20.2559H90.0384ZM110.333 18.6211V34.6172H108.065V18.6211H110.333ZM105.534 20.291C105.534 25.1426 103.829 29.168 98.1159 31.875L96.9382 30.082C101.069 28.1309 102.888 25.5996 103.249 22.0488H97.7995V20.291H105.534Z" fill="white"/>
</svg>
