<svg width="300" height="48" viewBox="0 0 300 48" fill="none" xmlns="http://www.w3.org/2000/svg">
<rect width="300" height="48" rx="12" fill="white"/>
<rect x="0.5" y="0.5" width="299" height="47" rx="11.5" stroke="black" stroke-opacity="0.54"/>
<mask id="mask0_510_6222" style="mask-type:luminance" maskUnits="userSpaceOnUse" x="106" y="18" width="13" height="12">
<path d="M118.5 18H106.5V30H118.5V18Z" fill="white"/>
</mask>
<g mask="url(#mask0_510_6222)">
<path d="M118.26 24.1355C118.26 23.71 118.222 23.301 118.151 22.9082H112.5V25.2291H115.729C115.59 25.9791 115.167 26.6146 114.532 27.04V28.5455H116.471C117.605 27.501 118.26 25.9627 118.26 24.1355Z" fill="#4285F4"/>
<path d="M112.5 30.0006C114.12 30.0006 115.478 29.4633 116.471 28.547L114.532 27.0415C113.995 27.4015 113.307 27.6142 112.5 27.6142C110.937 27.6142 109.615 26.5588 109.143 25.1406H107.138V26.6952C108.125 28.6561 110.155 30.0006 112.5 30.0006Z" fill="#34A853"/>
<path d="M109.143 25.1392C109.023 24.7792 108.955 24.3947 108.955 23.9992C108.955 23.6038 109.023 23.2192 109.143 22.8592V21.3047H107.138C106.732 22.1147 106.5 23.0311 106.5 23.9992C106.5 24.9674 106.732 25.8838 107.138 26.6938L109.143 25.1392Z" fill="#FBBC04"/>
<path d="M112.5 20.3864C113.381 20.3864 114.172 20.6891 114.794 21.2836L116.515 19.5627C115.475 18.5945 114.117 18 112.5 18C110.155 18 108.125 19.3445 107.138 21.3055L109.143 22.86C109.615 21.4418 110.937 20.3864 112.5 20.3864Z" fill="#E94235"/>
</g>
<path d="M139.428 17.9404V19.0977C139.428 20.3428 139.428 21.6904 139.062 23.5654H140.951V24.708H135.634V30.2598H134.228V24.708H128.983V23.5654H137.655C138.051 21.6978 138.051 20.3208 138.051 19.0977V19.083H130.448V17.9404H139.428ZM152.136 17.6768V18.541C152.136 19.4126 152.136 20.5112 151.857 21.9395H153.659V23.0527H141.647V21.9395H150.466C150.729 20.6064 150.759 19.603 150.759 18.79H143.156V17.6768H152.136ZM152.15 24.2246V27.667H144.46V29H152.487V30.1133H143.068V26.5977H150.773V25.3379H143.054V24.2246H152.15ZM169.685 27.5059V28.6777H157.673V27.5059H162.961V25.2061H159.138V21.0312H166.843V19.1855H159.109V18.043H168.22V22.1445H160.515V24.0635H168.528V25.2061H164.338V27.5059H169.685ZM180.737 18.4531V19.8594C180.737 21.5586 180.737 23.4043 180.254 26.2021L178.833 26.0703C179.361 23.4482 179.361 21.5146 179.361 19.8594V19.5957H171.626V18.4531H180.737ZM182.305 27.2275V28.3848H170.337V27.2275H182.305ZM193.885 17.1348V26.6709H192.493V17.1348H193.885ZM194.28 28.8389V29.9668H185.301V25.7041H186.707V28.8389H194.28ZM186.766 18.0137C188.743 18.0137 190.252 19.3613 190.252 21.2656C190.252 23.1992 188.743 24.5322 186.766 24.5322C184.788 24.5322 183.265 23.1992 183.265 21.2656C183.265 19.3613 184.788 18.0137 186.766 18.0137ZM186.766 19.2295C185.535 19.2295 184.627 20.0645 184.627 21.2656C184.627 22.4961 185.535 23.3164 186.766 23.3164C187.967 23.3164 188.89 22.4961 188.89 21.2656C188.89 20.0645 187.967 19.2295 186.766 19.2295Z" fill="black" fill-opacity="0.54"/>
</svg>
