<svg width="200" height="100" viewBox="0 0 200 100" fill="none" xmlns="http://www.w3.org/2000/svg">
<path d="M68.2099 54.4302L69.9899 47.6902C70.1099 47.2302 70.4899 46.9002 70.8899 46.9002H74.2499C74.7899 46.9002 75.1399 47.4902 74.9799 48.1102L70.2899 65.9002C70.1299 66.5202 70.4799 67.1102 71.0199 67.1102H73.3899C79.8099 67.1102 85.7899 61.8202 87.7299 54.4202L99.3599 10.2102C99.5199 9.59023 99.1699 9.00023 98.6299 9.00023H96.2499C89.8399 9.00023 83.8599 14.2902 81.9099 21.6802L80.7399 26.1102C80.6199 26.5702 80.2399 26.9002 79.8399 26.9002H76.4799C75.9399 26.9002 75.5899 26.3102 75.7499 25.6902L79.8299 10.2002C79.9899 9.58023 79.6399 8.99023 79.0999 8.99023H76.7199C70.2999 8.99023 64.3199 14.2802 62.3799 21.6802L50.7499 65.8902C50.5899 66.5102 50.9399 67.1002 51.4799 67.1002H53.8699C60.2799 67.1002 66.2599 61.8202 68.2099 54.4302Z" fill="black"/>
<path d="M27.6505 57.1001C46.6305 57.1001 52.4005 48.8601 56.2705 34.3401C60.1705 19.5301 58.7705 11.3901 39.7805 11.3901C20.7905 11.3901 15.1305 19.5301 11.2305 34.3501C7.36054 48.8701 8.83054 57.1101 27.6505 57.1101V57.1001ZM29.8205 33.3101C30.9105 29.1901 31.2205 26.9801 35.3505 26.9801C39.4805 26.9801 38.5405 29.1901 37.4505 33.3101C36.3405 37.5801 36.0705 39.3501 32.0705 39.3501C28.0705 39.3501 28.7205 37.5801 29.8205 33.3101Z" fill="black"/>
<path d="M25.4101 58.6001H22.2501C15.8101 58.6001 9.81013 63.9301 7.89013 71.3701L5.16013 84.8001C4.52013 87.2801 5.93013 89.6101 8.08013 89.6101H68.2801C74.7101 89.6101 80.6901 84.3001 82.6301 76.8901L83.8301 72.3101C83.9901 71.6901 83.6401 71.1001 83.1001 71.1001H24.9201C24.3801 71.1001 24.0301 70.5101 24.1901 69.8901L26.1301 59.8101C26.3001 59.1901 25.9401 58.6001 25.4001 58.6001H25.4101Z" fill="black"/>
<path d="M188.47 6H183.52C177.12 6 171.15 11.27 169.19 18.64L158.12 56.81C158 57.27 157.62 57.6 157.22 57.6H110.12C103.7 57.6 97.7097 62.91 95.7697 70.31L94.9697 73.38H152.54C153.19 73.38 153.66 73.99 153.51 74.62L153.1 76.29C153.1 76.29 153.1 76.29 153.1 76.3L148.61 93.39C148.45 94.01 148.8 94.6 149.34 94.6H164.58C164.98 94.6 165.35 94.27 165.48 93.81L189.2 7.21C189.36 6.59 189.01 6 188.47 6Z" fill="black"/>
<path d="M159.8 37.5H151.69C151.16 37.5 150.8 36.93 150.96 36.31L153.23 27.1C159.18 27.1 164.74 22.23 166.61 15.39L167.48 12.22C167.65 11.6 167.3 11 166.75 11H123.67C117.24 11 111.26 16.31 109.32 23.72L108.75 25.9C108.59 26.52 108.94 27.11 109.48 27.11H119.1C119.63 27.11 119.99 27.68 119.83 28.3L117.56 37.51H116.7C110.28 37.51 104.29 41.81 102.35 49.21L101.51 52.4C101.35 53.02 101.7 53.61 102.24 53.61L145.34 54.61C151.76 54.61 157.75 49.31 159.69 41.91L160.53 38.72C160.69 38.1 160.34 37.51 159.8 37.51V37.5ZM134.01 37.5H133.24C132.16 37.5 131.45 36.33 131.78 35.08L133.21 29.68C133.45 28.76 134.2 28.1 135 28.1H135.77C136.85 28.1 137.56 29.27 137.23 30.52L135.8 35.92C135.56 36.84 134.81 37.5 134.01 37.5Z" fill="black"/>
<path d="M189.05 94.3899H175.12C174.46 94.3899 173.98 93.7599 174.16 93.1199L176.19 85.7299C177.38 81.3899 181.33 78.3799 185.83 78.3799H192.9C193.56 78.3799 194.04 79.0099 193.86 79.6499L190.01 93.6499C189.89 94.0799 189.5 94.3799 189.05 94.3799V94.3899Z" fill="#EC4700"/>
</svg>
