<svg width="300" height="48" viewBox="0 0 300 48" fill="none" xmlns="http://www.w3.org/2000/svg">
<rect width="300" height="48" rx="12" fill="#03C75A"/>
<path d="M108.16 24.42L103.67 18H99.95V30H103.85V23.58L108.33 30H112.05V18H108.16V24.42Z" fill="white"/>
<path d="M124.476 18.4824V25.7773C125.823 25.7554 127.098 25.6675 128.548 25.3672L128.738 26.5537C127.024 26.9053 125.574 26.9785 123.948 26.9785H123.084V18.4824H124.476ZM133.763 17.1201V30.2451H132.444V17.1201H133.763ZM130.95 17.4131V29.6006H129.632V22.584H126.761V21.4414H129.632V17.4131H130.95ZM146.016 17.1201V30.2744H144.625V17.1201H146.016ZM139 18.1016C140.948 18.1016 142.384 19.8887 142.384 22.7012C142.384 25.5283 140.948 27.3154 139 27.3154C137.022 27.3154 135.601 25.5283 135.601 22.7012C135.601 19.8887 137.022 18.1016 139 18.1016ZM139 19.3467C137.784 19.3467 136.949 20.6357 136.949 22.7012C136.949 24.7812 137.784 26.0703 139 26.0703C140.201 26.0703 141.036 24.7812 141.036 22.7012C141.036 20.6357 140.201 19.3467 139 19.3467ZM158.754 17.1201V30.2744H157.377V23.0527H154.476V27.0225H148.324V18.1309H149.73V21.4854H153.114V18.1309H154.476V21.9102H157.377V17.1201H158.754ZM149.73 25.8799H153.114V22.584H149.73V25.8799ZM175.849 27.5059V28.6777H163.837V27.5059H169.125V25.2061H165.302V21.0312H173.007V19.1855H165.273V18.043H174.384V22.1445H166.679V24.0635H174.692V25.2061H170.502V27.5059H175.849ZM186.901 18.4531V19.8594C186.901 21.5586 186.901 23.4043 186.418 26.2021L184.997 26.0703C185.524 23.4482 185.524 21.5146 185.524 19.8594V19.5957H177.79V18.4531H186.901ZM188.469 27.2275V28.3848H176.501V27.2275H188.469ZM200.049 17.1348V26.6709H198.657V17.1348H200.049ZM200.444 28.8389V29.9668H191.465V25.7041H192.871V28.8389H200.444ZM192.929 18.0137C194.907 18.0137 196.416 19.3613 196.416 21.2656C196.416 23.1992 194.907 24.5322 192.929 24.5322C190.952 24.5322 189.429 23.1992 189.429 21.2656C189.429 19.3613 190.952 18.0137 192.929 18.0137ZM192.929 19.2295C191.699 19.2295 190.791 20.0645 190.791 21.2656C190.791 22.4961 191.699 23.3164 192.929 23.3164C194.131 23.3164 195.054 22.4961 195.054 21.2656C195.054 20.0645 194.131 19.2295 192.929 19.2295Z" fill="white"/>
</svg>
