<svg width="1320" height="120" viewBox="0 0 1320 120" fill="none" xmlns="http://www.w3.org/2000/svg">
<g clip-path="url(#clip0_1772_5469)">
<rect width="1320" height="120" rx="24" fill="white"/>
<rect width="1320" height="120" rx="24" fill="#FCFCFC"/>
<path d="M571.414 33.888H567.31C566.11 33.888 565.27 33.504 565.27 32.304C565.27 31.104 566.11 30.696 567.31 30.696H574.606C575.902 30.696 576.814 31.128 576.814 32.424C576.814 33.048 576.598 33.552 576.166 33.936L571.678 37.944C572.062 37.848 572.47 37.776 572.926 37.776C575.806 37.776 577.798 39.768 577.798 42.744C577.798 46.68 574.846 48.84 570.958 48.84C569.014 48.84 566.854 48.504 565.414 47.208C564.718 46.608 564.526 45.672 565.078 44.88C565.654 44.112 566.662 44.016 567.31 44.448C568.462 45.216 569.638 45.504 570.982 45.504C572.782 45.504 574.03 44.664 574.03 42.936C574.03 40.944 572.134 40.104 569.758 40.224L568.006 40.296C567.262 40.32 566.734 39.816 566.734 39.048C566.734 38.208 567.166 37.776 567.67 37.344L571.414 33.888ZM588.458 35.16H583.826C582.77 35.16 582.122 34.68 582.122 33.624C582.122 32.568 582.77 32.088 583.826 32.088H588.554V30.456C588.554 29.52 589.25 28.848 590.474 28.848C591.698 28.848 592.394 29.52 592.394 30.456V32.088H597.122C598.178 32.088 598.826 32.568 598.826 33.624C598.826 34.68 598.178 35.16 597.122 35.16H592.466C593.018 36.888 596.042 38.352 598.37 39.384C599.234 39.768 599.642 40.536 599.282 41.472C598.946 42.36 598.01 42.648 597.05 42.384C594.602 41.688 591.866 40.056 590.474 38.544C589.082 40.056 586.346 41.688 583.898 42.384C582.938 42.648 582.002 42.36 581.666 41.472C581.306 40.536 581.714 39.768 582.578 39.384C584.906 38.352 587.93 36.888 588.458 35.16ZM599.474 48.72H581.474C580.394 48.72 579.746 48.168 579.746 47.088C579.746 46.008 580.394 45.456 581.474 45.456H588.554V42.84C588.554 41.712 589.346 41.064 590.474 41.064C591.602 41.064 592.394 41.712 592.394 42.84V45.456H599.474C600.554 45.456 601.202 46.008 601.202 47.088C601.202 48.168 600.554 48.72 599.474 48.72ZM620.816 32.04V38.736C620.816 40.296 620 41.064 618.44 41.064H611.672C610.112 41.064 609.296 40.296 609.296 38.736V32.04C609.296 30.48 610.112 29.712 611.672 29.712H618.44C620 29.712 620.816 30.48 620.816 32.04ZM613.928 42.888C615.056 42.888 615.872 43.56 615.872 44.712V47.64C615.872 47.976 615.944 48.048 616.28 48.048H626.264C627.272 48.048 627.896 48.624 627.896 49.632C627.896 50.64 627.272 51.216 626.264 51.216H614.168C612.608 51.216 611.984 50.616 611.984 49.104V44.712C611.984 43.56 612.8 42.888 613.928 42.888ZM623.456 42.84V30.936C623.456 29.808 624.248 29.208 625.376 29.208C626.504 29.208 627.296 29.808 627.296 30.936V34.248H628.952C629.96 34.248 630.68 34.752 630.68 35.832C630.68 36.912 629.96 37.416 628.952 37.416H627.296V42.84C627.296 43.968 626.504 44.592 625.376 44.592C624.248 44.592 623.456 43.968 623.456 42.84ZM617.12 37.728V33.024C617.12 32.76 617.048 32.688 616.784 32.688H613.328C613.064 32.688 612.992 32.76 612.992 33.024V37.728C612.992 37.992 613.064 38.064 613.328 38.064H616.784C617.048 38.064 617.12 37.992 617.12 37.728ZM646.946 31.08V49.152C646.946 50.232 646.322 50.784 645.242 50.784C644.162 50.784 643.538 50.232 643.538 49.152V39.36H641.714C641.474 43.416 640.082 45.912 636.674 45.912C632.882 45.912 631.538 42.816 631.538 37.944C631.538 33.072 632.882 29.976 636.674 29.976C640.034 29.976 641.426 32.424 641.714 36.384H643.538V31.08C643.538 30 644.162 29.448 645.242 29.448C646.322 29.448 646.946 30 646.946 31.08ZM651.674 30.864V49.824C651.674 50.904 651.026 51.48 649.946 51.48C648.866 51.48 648.218 50.904 648.218 49.824V30.864C648.218 29.784 648.866 29.208 649.946 29.208C651.026 29.208 651.674 29.784 651.674 30.864ZM634.874 37.944C634.874 41.04 635.306 42.84 636.674 42.84C638.042 42.84 638.474 41.04 638.474 37.944C638.474 34.848 638.042 33.048 636.674 33.048C635.306 33.048 634.874 34.848 634.874 37.944ZM675.08 49.728V30.96C675.08 29.832 675.872 29.208 677 29.208C678.128 29.208 678.92 29.832 678.92 30.96V36.648H680.624C681.632 36.648 682.328 37.2 682.328 38.304C682.328 39.384 681.632 39.936 680.624 39.936H678.92V49.728C678.92 50.856 678.128 51.48 677 51.48C675.872 51.48 675.08 50.856 675.08 49.728ZM667.808 33.552H662.792C661.784 33.552 661.184 32.952 661.184 31.944C661.184 30.936 661.784 30.336 662.792 30.336H669.8C671.36 30.336 672.2 31.104 672.2 32.664V33.984C672.2 39.432 668.48 43.632 663.224 46.128C662.336 46.536 661.256 46.44 660.728 45.432C660.272 44.616 660.512 43.512 661.52 42.984C665.6 40.824 668.36 38.328 668.36 34.752V34.104C668.36 33.672 668.288 33.552 667.808 33.552ZM698.569 38.76V30.96C698.569 29.832 699.361 29.208 700.489 29.208C701.617 29.208 702.409 29.832 702.409 30.96V38.76C702.409 39.888 701.617 40.512 700.489 40.512C699.361 40.512 698.569 39.888 698.569 38.76ZM683.521 34.8C683.521 31.344 686.209 29.496 689.665 29.496C693.121 29.496 695.809 31.344 695.809 34.8C695.809 38.256 693.121 40.104 689.665 40.104C686.209 40.104 683.521 38.256 683.521 34.8ZM687.217 34.8C687.217 36.264 688.201 37.224 689.665 37.224C691.129 37.224 692.113 36.264 692.113 34.8C692.113 33.336 691.129 32.376 689.665 32.376C688.201 32.376 687.217 33.336 687.217 34.8ZM690.697 46.896V48.36C690.697 48.528 690.793 48.624 690.961 48.624H698.329C698.497 48.624 698.569 48.528 698.569 48.36V46.896H690.697ZM686.857 49.2V43.344C686.857 42.192 687.649 41.616 688.777 41.616C689.905 41.616 690.697 42.216 690.697 43.344V44.232H698.569V43.344C698.569 42.216 699.361 41.616 700.489 41.616C701.617 41.616 702.409 42.216 702.409 43.344V49.2C702.409 50.736 701.785 51.336 700.249 51.336H689.017C687.457 51.336 686.857 50.736 686.857 49.2Z" fill="#EC4700"/>
<path d="M706.56 41.28C706.56 37.92 708.84 35.928 711.96 35.928C715.08 35.928 717.36 37.92 717.36 41.28C717.36 44.64 715.08 46.632 711.96 46.632C708.84 46.632 706.56 44.64 706.56 41.28ZM723.192 40.032V50.208C723.192 50.808 722.808 51.24 722.136 51.24C721.464 51.24 721.08 50.808 721.08 50.208V30.504C721.08 29.856 721.488 29.472 722.136 29.472C722.784 29.472 723.192 29.856 723.192 30.504V38.208H726.072C726.672 38.208 727.08 38.52 727.08 39.12C727.08 39.72 726.672 40.032 726.072 40.032H723.192ZM715.272 41.28C715.272 39.072 714.024 37.656 711.96 37.656C709.896 37.656 708.648 39.072 708.648 41.28C708.648 43.488 709.896 44.904 711.96 44.904C714.024 44.904 715.272 43.488 715.272 41.28ZM717.24 34.296H706.464C705.864 34.296 705.456 34.008 705.456 33.408C705.456 32.808 705.864 32.52 706.464 32.52H710.904V30C710.904 29.352 711.312 28.968 711.96 28.968C712.608 28.968 713.016 29.352 713.016 30V32.52H717.24C717.84 32.52 718.248 32.808 718.248 33.408C718.248 34.008 717.84 34.296 717.24 34.296ZM737.597 40.944H731.261C729.701 40.944 729.149 40.392 729.149 38.832V32.184C729.149 30.624 729.701 30.072 731.261 30.072H737.597C739.157 30.072 739.709 30.624 739.709 32.184V38.832C739.709 40.392 739.157 40.944 737.597 40.944ZM731.189 32.28V38.736C731.189 39.12 731.333 39.264 731.717 39.264H737.141C737.525 39.264 737.669 39.12 737.669 38.736V32.28C737.669 31.896 737.525 31.752 737.141 31.752H731.717C731.333 31.752 731.189 31.896 731.189 32.28ZM744.341 34.152H741.437C740.837 34.152 740.429 33.888 740.429 33.288C740.429 32.688 740.837 32.424 741.437 32.424H744.341V30.48C744.341 29.832 744.749 29.448 745.397 29.448C746.045 29.448 746.453 29.832 746.453 30.48V43.824C746.453 44.472 746.045 44.856 745.397 44.856C744.749 44.856 744.341 44.472 744.341 43.824V38.856H741.437C740.837 38.856 740.429 38.592 740.429 37.992C740.429 37.392 740.837 37.128 741.437 37.128H744.341V34.152ZM734.213 44.16V48.672C734.213 49.056 734.357 49.2 734.741 49.2H746.045C746.645 49.2 747.053 49.488 747.053 50.088C747.053 50.688 746.645 50.976 746.045 50.976H734.333C732.701 50.976 732.101 50.376 732.101 48.744V44.16C732.101 43.512 732.509 43.128 733.157 43.128C733.805 43.128 734.213 43.512 734.213 44.16ZM750.49 49.824L751.258 46.56C751.45 45.768 751.906 45.288 752.746 45.504C753.586 45.72 753.634 46.368 753.442 47.16L752.674 50.424C752.482 51.216 752.026 51.696 751.186 51.48C750.346 51.264 750.298 50.616 750.49 49.824Z" fill="black"/>
<path d="M509.336 90.872V70.54C509.336 69.318 510.194 68.642 511.416 68.642C512.638 68.642 513.496 69.318 513.496 70.54V76.182H515.342C516.434 76.182 517.188 76.78 517.188 77.976C517.188 79.146 516.434 79.744 515.342 79.744H513.496V90.872C513.496 92.094 512.638 92.77 511.416 92.77C510.194 92.77 509.336 92.094 509.336 90.872ZM506.424 85.464C504.084 85.854 501.822 86.062 499.144 86.062H496.96C495.192 86.062 494.334 85.178 494.334 83.462V71.788C494.334 70.644 495.088 69.786 496.414 69.786C497.74 69.786 498.494 70.644 498.494 71.788V82.032C498.494 82.396 498.572 82.474 498.936 82.474H499.508C501.744 82.474 504.058 82.318 505.904 82.006C506.892 81.85 507.75 82.214 507.932 83.332C508.14 84.476 507.412 85.282 506.424 85.464ZM531.117 71.71V78.964C531.117 80.654 530.233 81.486 528.543 81.486H521.211C519.521 81.486 518.637 80.654 518.637 78.964V71.71C518.637 70.02 519.521 69.188 521.211 69.188H528.543C530.233 69.188 531.117 70.02 531.117 71.71ZM523.655 83.462C524.877 83.462 525.761 84.19 525.761 85.438V88.61C525.761 88.974 525.839 89.052 526.203 89.052H537.019C538.111 89.052 538.787 89.676 538.787 90.768C538.787 91.86 538.111 92.484 537.019 92.484H523.915C522.225 92.484 521.549 91.834 521.549 90.196V85.438C521.549 84.19 522.433 83.462 523.655 83.462ZM533.977 83.41V70.514C533.977 69.292 534.835 68.642 536.057 68.642C537.279 68.642 538.137 69.292 538.137 70.514V74.102H539.931C541.023 74.102 541.803 74.648 541.803 75.818C541.803 76.988 541.023 77.534 539.931 77.534H538.137V83.41C538.137 84.632 537.279 85.308 536.057 85.308C534.835 85.308 533.977 84.632 533.977 83.41ZM527.113 77.872V72.776C527.113 72.49 527.035 72.412 526.749 72.412H523.005C522.719 72.412 522.641 72.49 522.641 72.776V77.872C522.641 78.158 522.719 78.236 523.005 78.236H526.749C527.035 78.236 527.113 78.158 527.113 77.872ZM559.866 90.846V70.566C559.866 69.318 560.62 68.642 561.842 68.642C563.09 68.642 563.844 69.318 563.844 70.566V90.846C563.844 92.094 563.09 92.77 561.842 92.77C560.62 92.77 559.866 92.094 559.866 90.846ZM544.526 84.684H550.532C552.768 84.684 554.744 84.554 556.98 84.294C557.968 84.164 558.67 84.658 558.852 85.568C559.008 86.4 558.618 87.362 557.734 87.596C555.654 88.116 552.508 88.168 550.298 88.168H544.526C543.434 88.168 542.706 87.544 542.706 86.426C542.706 85.334 543.434 84.684 544.526 84.684ZM548.01 75.402C548.01 76.988 549.128 78.054 550.714 78.054C552.3 78.054 553.418 76.988 553.418 75.402C553.418 73.816 552.3 72.75 550.714 72.75C549.128 72.75 548.01 73.816 548.01 75.402ZM543.928 75.402C543.928 71.58 546.892 69.344 550.714 69.344C554.536 69.344 557.5 71.58 557.5 75.402C557.5 79.224 554.536 81.46 550.714 81.46C546.892 81.46 543.928 79.224 543.928 75.402ZM589.961 79.666V90.248C589.961 91.418 589.285 92.016 588.115 92.016C586.945 92.016 586.269 91.418 586.269 90.248V70.67C586.269 69.5 586.945 68.902 588.115 68.902C589.285 68.902 589.961 69.5 589.961 70.67V76.234H591.729V70.436C591.729 69.266 592.431 68.642 593.601 68.642C594.771 68.642 595.473 69.266 595.473 70.436V90.976C595.473 92.146 594.771 92.77 593.601 92.77C592.431 92.77 591.729 92.146 591.729 90.976V79.666H589.961ZM584.787 78.106C584.787 83.384 583.331 86.738 579.223 86.738C575.115 86.738 573.659 83.384 573.659 78.106C573.659 72.828 575.115 69.474 579.223 69.474C583.331 69.474 584.787 72.828 584.787 78.106ZM577.273 78.106C577.273 81.46 577.741 83.41 579.223 83.41C580.705 83.41 581.173 81.46 581.173 78.106C581.173 74.752 580.705 72.802 579.223 72.802C577.741 72.802 577.273 74.752 577.273 78.106ZM615.382 90.872V70.54C615.382 69.318 616.24 68.642 617.462 68.642C618.684 68.642 619.542 69.318 619.542 70.54V90.872C619.542 92.094 618.684 92.77 617.462 92.77C616.24 92.77 615.382 92.094 615.382 90.872ZM611.69 85.464C609.35 85.854 607.088 86.062 604.41 86.062H602.226C600.458 86.062 599.6 85.178 599.6 83.462V71.788C599.6 70.644 600.354 69.786 601.68 69.786C603.006 69.786 603.76 70.644 603.76 71.788V82.032C603.76 82.396 603.838 82.474 604.202 82.474H604.774C607.01 82.474 609.324 82.318 611.17 82.006C612.158 81.85 613.016 82.214 613.198 83.332C613.406 84.476 612.678 85.282 611.69 85.464ZM624.169 79.328H644.215C645.177 79.328 645.801 79.666 645.801 80.628C645.801 81.59 645.177 81.928 644.215 81.928H624.169C623.207 81.928 622.557 81.59 622.557 80.628C622.557 79.666 623.207 79.328 624.169 79.328ZM641.615 92.77H627.679C626.067 92.77 625.547 92.302 625.547 90.69V88.558C625.547 86.946 626.067 86.478 627.679 86.478H638.859C638.963 86.478 639.041 86.426 639.041 86.322V85.75C639.041 85.62 638.963 85.568 638.859 85.568H627.263C626.275 85.568 625.547 85.23 625.547 84.242C625.547 83.254 626.275 82.916 627.263 82.916H640.705C642.317 82.916 642.811 83.358 642.811 84.97V86.972C642.811 88.584 642.343 89.026 640.705 89.026H629.525C629.421 89.026 629.343 89.078 629.343 89.208V89.884C629.343 90.014 629.421 90.066 629.525 90.066H641.615C642.603 90.066 643.331 90.43 643.331 91.418C643.331 92.406 642.603 92.77 641.615 92.77ZM625.677 76.286V74.31C625.677 72.698 626.197 72.23 627.809 72.23H638.703C638.833 72.23 638.885 72.178 638.885 72.048V71.58C638.885 71.45 638.833 71.398 638.703 71.398H627.367C626.379 71.398 625.677 71.034 625.677 70.046C625.677 69.058 626.379 68.694 627.367 68.694H640.549C642.161 68.694 642.681 69.162 642.681 70.774V72.698C642.681 74.388 642.213 74.778 640.523 74.778H629.655C629.525 74.778 629.473 74.83 629.473 74.96V75.48C629.473 75.61 629.525 75.662 629.655 75.662H641.459C642.447 75.662 643.175 76.026 643.175 77.014C643.175 78.002 642.447 78.366 641.459 78.366H627.809C626.197 78.366 625.677 77.898 625.677 76.286ZM694.4 85.646H683.402C682.362 85.646 681.79 85.308 681.79 84.268C681.79 83.228 682.362 82.89 683.402 82.89H696.376C698.066 82.89 698.508 83.306 698.508 84.97V86.946C698.508 88.636 697.962 89.13 696.272 89.13H685.872C685.768 89.13 685.69 89.182 685.69 89.312V89.832C685.69 89.962 685.768 89.988 685.872 89.988H697.39C698.43 89.988 699.028 90.352 699.028 91.392C699.028 92.432 698.43 92.77 697.39 92.77H684C682.31 92.77 681.79 92.276 681.79 90.586V88.584C681.79 86.894 682.284 86.426 683.974 86.426H694.4C694.53 86.426 694.608 86.374 694.608 86.244V85.828C694.608 85.698 694.53 85.646 694.4 85.646ZM679.346 77.664C679.346 74.752 682.336 73.504 685.69 73.504C689.044 73.504 692.034 74.752 692.034 77.664C692.034 80.576 689.044 81.824 685.69 81.824C682.336 81.824 679.346 80.576 679.346 77.664ZM694.348 80.03V70.514C694.348 69.292 695.206 68.642 696.428 68.642C697.65 68.642 698.508 69.292 698.508 70.514V73.452H700.302C701.394 73.452 702.174 73.998 702.174 75.168C702.174 76.338 701.394 76.884 700.302 76.884H698.508V80.03C698.508 81.252 697.65 81.928 696.428 81.928C695.206 81.928 694.348 81.252 694.348 80.03ZM691.15 72.854H679.97C678.8 72.854 678.072 72.542 678.072 71.372C678.072 70.202 678.8 69.89 679.97 69.89H683.74V69.266C683.74 68.096 684.52 67.472 685.69 67.472C686.86 67.472 687.64 68.096 687.64 69.266V69.89H691.15C692.32 69.89 693.048 70.202 693.048 71.372C693.048 72.542 692.32 72.854 691.15 72.854ZM683.194 77.664C683.194 78.678 684.442 79.042 685.69 79.042C686.938 79.042 688.186 78.678 688.186 77.664C688.186 76.65 686.938 76.286 685.69 76.286C684.442 76.286 683.194 76.65 683.194 77.664ZM718.899 85.49H711.229C710.059 85.49 709.357 84.892 709.357 83.722C709.357 82.552 710.059 81.954 711.229 81.954H730.729C731.899 81.954 732.601 82.552 732.601 83.722C732.601 84.892 731.899 85.49 730.729 85.49H723.059V90.872C723.059 92.146 722.253 92.77 720.979 92.77C719.705 92.77 718.899 92.146 718.899 90.872V85.49ZM720.979 68.954C722.201 68.954 723.059 69.656 723.059 70.878V71.424C723.059 73.816 726.049 75.298 729.533 76.832C730.495 77.248 730.911 78.314 730.521 79.25C730.131 80.186 729.169 80.524 728.103 80.186C725.269 79.302 722.487 77.664 720.979 76.026C719.471 77.664 716.689 79.302 713.855 80.186C712.789 80.524 711.827 80.186 711.437 79.25C711.047 78.314 711.463 77.248 712.425 76.832C715.909 75.298 718.899 73.816 718.899 71.424V70.878C718.899 69.656 719.757 68.954 720.979 68.954ZM757.516 79.77V70.54C757.516 69.318 758.374 68.642 759.596 68.642C760.818 68.642 761.676 69.318 761.676 70.54V79.77C761.676 80.992 760.818 81.668 759.596 81.668C758.374 81.668 757.516 80.992 757.516 79.77ZM741.214 74.96C741.214 71.086 743.996 68.954 747.87 68.954C751.744 68.954 754.526 71.086 754.526 74.96C754.526 78.834 751.744 80.966 747.87 80.966C743.996 80.966 741.214 78.834 741.214 74.96ZM745.218 74.96C745.218 76.624 746.206 77.846 747.87 77.846C749.534 77.846 750.522 76.624 750.522 74.96C750.522 73.296 749.534 72.074 747.87 72.074C746.206 72.074 745.218 73.296 745.218 74.96ZM753.07 92.692C752.758 92.692 752.472 92.614 752.212 92.484C751.094 91.964 749.638 91.132 748.65 89.858C748.026 90.768 747.168 91.704 746.076 92.38C745.166 92.952 744.022 92.952 743.398 92.12C742.774 91.288 743.112 90.196 744.022 89.468C745.556 88.246 746.622 87.024 746.622 85.23V84.346C746.622 83.202 747.506 82.63 748.65 82.63C749.794 82.63 750.678 83.202 750.678 84.346V85.23C750.678 87.024 751.666 88.298 753.07 89.182C754.474 88.298 755.462 87.024 755.462 85.23V84.346C755.462 83.202 756.346 82.63 757.49 82.63C758.634 82.63 759.518 83.202 759.518 84.346V85.23C759.518 87.024 760.584 88.064 762.118 89.286C763.028 90.014 763.366 91.106 762.742 91.938C762.118 92.77 760.974 92.796 760.064 92.224C758.972 91.548 758.218 90.82 757.49 89.858C756.502 91.132 755.046 91.964 753.928 92.484C753.668 92.614 753.382 92.692 753.07 92.692ZM782.241 76.208V70.566C782.241 69.318 783.099 68.642 784.321 68.642C785.569 68.642 786.401 69.318 786.401 70.566V90.846C786.401 92.094 785.569 92.77 784.321 92.77C783.099 92.77 782.241 92.094 782.241 90.846V79.666H778.939C778.575 83.982 776.469 86.712 772.335 86.712C767.733 86.712 765.601 83.332 765.601 78.158C765.601 72.984 767.733 69.604 772.335 69.604C776.313 69.604 778.419 72.152 778.887 76.208H782.241ZM772.335 83.228C774.415 83.228 775.013 80.966 775.013 78.158C775.013 75.35 774.415 73.088 772.335 73.088C770.255 73.088 769.657 75.35 769.657 78.158C769.657 80.966 770.255 83.228 772.335 83.228ZM801.038 69.604C806.16 69.604 809.93 71.632 809.93 76.13C809.93 78.522 808.864 80.212 807.096 81.278V86.244H810.788C811.958 86.244 812.66 86.842 812.66 88.012C812.66 89.182 811.958 89.78 810.788 89.78H791.288C790.118 89.78 789.416 89.182 789.416 88.012C789.416 86.842 790.118 86.244 791.288 86.244H794.98V81.278C793.212 80.212 792.146 78.522 792.146 76.13C792.146 71.632 795.916 69.604 801.038 69.604ZM801.038 73.062C798.438 73.062 796.254 73.998 796.254 76.13C796.254 78.262 798.438 79.198 801.038 79.198C803.638 79.198 805.822 78.262 805.822 76.13C805.822 73.998 803.638 73.062 801.038 73.062ZM801.038 82.656C800.284 82.656 799.556 82.63 798.88 82.526V86.244H803.196V82.526C802.494 82.63 801.792 82.656 801.038 82.656ZM821.948 88.532C821.948 87.284 822.962 86.244 824.236 86.244C825.484 86.244 826.524 87.284 826.524 88.532C826.524 89.806 825.484 90.846 824.236 90.846C822.962 90.846 821.948 89.806 821.948 88.532ZM822.052 82.032V71.762C822.052 70.462 822.936 69.578 824.236 69.578C825.536 69.578 826.446 70.462 826.446 71.762V82.032C826.446 83.332 825.536 84.216 824.236 84.216C822.936 84.216 822.052 83.332 822.052 82.032Z" fill="black"/>
<path d="M662.447 81.746H655.557C654.439 81.746 653.685 81.304 653.685 80.186C653.685 79.068 654.439 78.626 655.557 78.626H656.363C656.155 77.638 656.103 76.494 656.103 75.61V74.856C656.103 73.686 656.857 73.114 658.027 73.114C659.197 73.114 659.951 73.686 659.951 74.856V75.792C659.951 76.884 660.003 77.768 660.133 78.626H662.317H662.525C662.655 77.768 662.707 76.884 662.707 75.792V74.856C662.707 73.686 663.461 73.114 664.631 73.114C665.801 73.114 666.555 73.686 666.555 74.856V75.61C666.555 76.416 666.503 77.456 666.321 78.392L667.491 78.262C668.479 78.158 669.077 78.522 669.207 79.484C669.337 80.446 668.817 81.174 667.751 81.33C665.619 81.642 664.111 81.746 662.447 81.746ZM670.715 90.872V87.076C670.715 86.894 670.611 86.79 670.429 86.79H659.301C658.287 86.79 657.507 86.166 657.507 85.074C657.507 83.982 658.287 83.358 659.301 83.358H672.561C674.251 83.358 674.875 83.93 674.875 85.62V90.872C674.875 92.094 674.017 92.77 672.795 92.77C671.573 92.77 670.715 92.094 670.715 90.872ZM670.715 80.16V70.514C670.715 69.292 671.547 68.642 672.769 68.642C673.991 68.642 674.875 69.292 674.875 70.514V80.16C674.875 81.382 674.017 82.058 672.795 82.058C671.573 82.058 670.715 81.382 670.715 80.16ZM656.103 69.188H666.555C667.673 69.188 668.427 69.63 668.427 70.748C668.427 71.866 667.673 72.308 666.555 72.308H656.103C654.985 72.308 654.231 71.866 654.231 70.748C654.231 69.63 654.985 69.188 656.103 69.188Z" fill="#EC4700"/>
<rect x="886.386" y="70.312" width="19.8864" height="4.22585" rx="2.11293" transform="rotate(120 886.386 70.312)" fill="url(#paint0_linear_1772_5469)"/>
<path fill-rule="evenodd" clip-rule="evenodd" d="M895.507 32.955C892.495 31.2159 888.664 32.9389 887.967 36.3466L887.652 37.8868C887.212 40.0357 888.197 42.2249 890.096 43.3216L890.711 43.6762L887.785 48.7436C883.311 46.9855 878.136 48.048 874.714 51.5871L872.069 54.3226C868.865 57.636 869.628 63.0781 873.62 65.3826L892.73 76.4156C896.721 78.7201 901.816 76.66 903.083 72.2287L904.13 68.5703C905.484 63.8367 903.816 58.8236 900.056 55.8279L902.981 50.7608L903.595 51.1148C905.494 52.2115 907.882 51.9696 909.523 50.5144L910.7 49.4713C913.302 47.1636 912.879 42.9845 909.867 41.2454L895.507 32.955Z" fill="url(#paint1_linear_1772_5469)"/>
<g filter="url(#filter0_f_1772_5469)">
<path d="M870.479 60.3519C870.052 59.0782 870.398 56.9542 871.325 55.6791C872.91 53.5006 875.899 50.6312 878.119 49.3085C880.242 48.4576 883.498 47.8168 884.491 48.0374C886.738 48.537 886.614 48.4593 884.491 48.4593C883.109 48.4593 880.093 49.1537 878.968 49.7331C876.074 51.2232 873.997 53.7954 872.599 55.6791C870.866 58.0147 870.519 60.4726 870.479 60.3519Z" fill="url(#paint2_linear_1772_5469)" fill-opacity="0.8"/>
</g>
<g filter="url(#filter1_f_1772_5469)">
<path d="M877.269 67.1409C877.269 67.1409 872.174 64.5934 871.325 62.4704C870.646 60.7722 874.611 55.3081 877.27 53.9788C880.667 52.2803 886.611 58.6108 883.639 57.8002C874.543 55.3197 877.269 67.1409 877.269 67.1409Z" fill="url(#paint3_linear_1772_5469)" fill-opacity="0.6"/>
</g>
<path d="M912.086 45.4872C911.661 45.4875 890.432 33.1743 890.432 33.1743C890.432 33.1743 892.555 31.4757 895.102 32.7497C897.65 34.0236 907.84 39.968 909.963 41.2415C912.086 42.515 912.511 45.4869 912.086 45.4872Z" fill="url(#paint4_linear_1772_5469)"/>
<path d="M890.856 43.7885C887.035 41.6655 887.46 38.6934 887.46 38.6934C887.46 38.6934 890.007 41.2409 897.65 45.4868C905.293 49.7328 908.69 51.0066 908.69 51.0066C908.69 51.0066 906.142 52.6277 903.17 51.0066C898.499 48.459 893.021 44.9908 890.856 43.7885Z" fill="url(#paint5_linear_1772_5469)"/>
<g filter="url(#filter2_f_1772_5469)">
<path d="M887.885 49.3083L891.282 43.7886L901.047 49.3083L897.65 54.828L887.885 49.3083Z" fill="#EC4801"/>
</g>
<g filter="url(#filter3_f_1772_5469)">
<path d="M885.337 71.8119L881.091 69.2642C882.11 66.5468 884.488 67.1414 888.309 69.2642L885.337 71.8119Z" fill="url(#paint6_linear_1772_5469)" fill-opacity="0.4"/>
</g>
<g filter="url(#filter4_f_1772_5469)">
<path d="M877.694 52.2804C877.209 49.7394 880.267 47.7684 885.362 48.6178C890.457 49.4672 899.49 55.3022 901.072 57.1098C904.044 60.5066 904.186 63.2667 902.345 65.1775C901.072 66.5001 878.5 56.5 877.694 52.2804Z" fill="url(#paint7_linear_1772_5469)" fill-opacity="0.5"/>
</g>
<path d="M902.8 73C901.71 76.6347 897.163 77.8877 894.5 77C893.3 76.6 894.5 76.5 896.5 75.5C897.667 74.5 899.088 73.2364 900 70.5C902.5 63 902 59.5 900.5 56.5C902.5 57.5 904.499 61.5 904.5 65.5C904.5 67.5 904 69 902.8 73Z" fill="url(#paint8_linear_1772_5469)"/>
<g filter="url(#filter5_f_1772_5469)">
<circle cx="894" cy="61" r="2" fill="#FF9C27"/>
</g>
</g>
<defs>
<filter id="filter0_f_1772_5469" x="869.298" y="46.9937" width="17.832" height="14.3628" filterUnits="userSpaceOnUse" color-interpolation-filters="sRGB">
<feFlood flood-opacity="0" result="BackgroundImageFix"/>
<feBlend mode="normal" in="SourceGraphic" in2="BackgroundImageFix" result="shape"/>
<feGaussianBlur stdDeviation="0.5" result="effect1_foregroundBlur_1772_5469"/>
</filter>
<filter id="filter1_f_1772_5469" x="870.248" y="52.688" width="15.1978" height="15.4531" filterUnits="userSpaceOnUse" color-interpolation-filters="sRGB">
<feFlood flood-opacity="0" result="BackgroundImageFix"/>
<feBlend mode="normal" in="SourceGraphic" in2="BackgroundImageFix" result="shape"/>
<feGaussianBlur stdDeviation="0.5" result="effect1_foregroundBlur_1772_5469"/>
</filter>
<filter id="filter2_f_1772_5469" x="885.885" y="41.7886" width="17.1626" height="15.0396" filterUnits="userSpaceOnUse" color-interpolation-filters="sRGB">
<feFlood flood-opacity="0" result="BackgroundImageFix"/>
<feBlend mode="normal" in="SourceGraphic" in2="BackgroundImageFix" result="shape"/>
<feGaussianBlur stdDeviation="1" result="effect1_foregroundBlur_1772_5469"/>
</filter>
<filter id="filter3_f_1772_5469" x="880.091" y="66.4424" width="9.21826" height="6.36963" filterUnits="userSpaceOnUse" color-interpolation-filters="sRGB">
<feFlood flood-opacity="0" result="BackgroundImageFix"/>
<feBlend mode="normal" in="SourceGraphic" in2="BackgroundImageFix" result="shape"/>
<feGaussianBlur stdDeviation="0.5" result="effect1_foregroundBlur_1772_5469"/>
</filter>
<filter id="filter4_f_1772_5469" x="876.644" y="47.4175" width="27.9087" height="18.8794" filterUnits="userSpaceOnUse" color-interpolation-filters="sRGB">
<feFlood flood-opacity="0" result="BackgroundImageFix"/>
<feBlend mode="normal" in="SourceGraphic" in2="BackgroundImageFix" result="shape"/>
<feGaussianBlur stdDeviation="0.5" result="effect1_foregroundBlur_1772_5469"/>
</filter>
<filter id="filter5_f_1772_5469" x="890" y="57" width="8" height="8" filterUnits="userSpaceOnUse" color-interpolation-filters="sRGB">
<feFlood flood-opacity="0" result="BackgroundImageFix"/>
<feBlend mode="normal" in="SourceGraphic" in2="BackgroundImageFix" result="shape"/>
<feGaussianBlur stdDeviation="1" result="effect1_foregroundBlur_1772_5469"/>
</filter>
<linearGradient id="paint0_linear_1772_5469" x1="895.128" y1="74.8114" x2="895.056" y2="70.4405" gradientUnits="userSpaceOnUse">
<stop stop-color="#A79B9B"/>
<stop offset="0.57" stop-color="#646060"/>
<stop offset="0.64" stop-color="#8E8E8E"/>
<stop offset="0.74" stop-color="#C4C4C4"/>
<stop offset="0.93" stop-color="#C4C4C4"/>
<stop offset="0.9301" stop-color="#E5E5E5"/>
</linearGradient>
<linearGradient id="paint1_linear_1772_5469" x1="910.535" y1="23.5101" x2="875.328" y2="84.4899" gradientUnits="userSpaceOnUse">
<stop stop-color="#FF852D" stop-opacity="0.972549"/>
<stop offset="0.705" stop-color="#EC4700"/>
</linearGradient>
<linearGradient id="paint2_linear_1772_5469" x1="881.516" y1="47.6101" x2="870.052" y2="59.0741" gradientUnits="userSpaceOnUse">
<stop stop-color="#FF8D3B" stop-opacity="0.2"/>
<stop offset="0.651463" stop-color="#FF8D3B"/>
<stop offset="1" stop-color="#FF8D3B" stop-opacity="0.6"/>
</linearGradient>
<linearGradient id="paint3_linear_1772_5469" x1="879.817" y1="54.4032" x2="873.024" y2="64.1689" gradientUnits="userSpaceOnUse">
<stop stop-color="#FFBC11" stop-opacity="0.1"/>
<stop offset="0.265" stop-color="#FFBC11" stop-opacity="0.7"/>
<stop offset="0.525" stop-color="#FFBC11" stop-opacity="0.4"/>
<stop offset="1" stop-color="#FFBC11" stop-opacity="0.1"/>
</linearGradient>
<linearGradient id="paint4_linear_1772_5469" x1="891.706" y1="32.7494" x2="912.086" y2="44.2134" gradientUnits="userSpaceOnUse">
<stop stop-color="#FF8933"/>
<stop offset="0.465" stop-color="#F7672A"/>
<stop offset="1" stop-color="#FF8933"/>
</linearGradient>
<linearGradient id="paint5_linear_1772_5469" x1="898.499" y1="45.0623" x2="896.801" y2="47.6098" gradientUnits="userSpaceOnUse">
<stop stop-color="#EC4700"/>
<stop offset="1" stop-color="#EC4700" stop-opacity="0.2"/>
</linearGradient>
<linearGradient id="paint6_linear_1772_5469" x1="884.7" y1="67.4424" x2="884.7" y2="71.8119" gradientUnits="userSpaceOnUse">
<stop stop-color="#FFBC11"/>
<stop offset="1" stop-color="#FFBC11" stop-opacity="0.3"/>
</linearGradient>
<linearGradient id="paint7_linear_1772_5469" x1="881.54" y1="49.8924" x2="903.619" y2="62.2056" gradientUnits="userSpaceOnUse">
<stop stop-color="#FD7715" stop-opacity="0.6"/>
<stop offset="0.5" stop-color="#F36312"/>
<stop offset="1" stop-color="#FD7715" stop-opacity="0.6"/>
</linearGradient>
<linearGradient id="paint8_linear_1772_5469" x1="903.5" y1="69" x2="901" y2="68" gradientUnits="userSpaceOnUse">
<stop stop-color="#F57842"/>
<stop offset="1" stop-color="#F57842" stop-opacity="0"/>
</linearGradient>
<clipPath id="clip0_1772_5469">
<rect width="1320" height="120" rx="24" fill="white"/>
</clipPath>
</defs>
</svg>
