<svg width="40" height="40" viewBox="0 0 40 40" fill="none" xmlns="http://www.w3.org/2000/svg">
<circle cx="20" cy="20" r="20" fill="#171719"/>
<circle cx="20" cy="20" r="19.5" stroke="white" stroke-opacity="0.2"/>
<rect x="18.2441" y="23.6438" width="8" height="1.7" rx="0.85" transform="rotate(120 18.2441 23.6438)" fill="white"/>
<path d="M19.7131 10.1503L20.5458 10.3208L20.5458 10.3208L19.7131 10.1503ZM19.5863 10.77L18.7536 10.5996L18.7536 10.5996L19.5863 10.77ZM20.1619 12.0498L19.7369 12.7859L19.7369 12.7859L20.1619 12.0498ZM21.1452 12.6174L21.8813 13.0424C21.994 12.8472 22.0246 12.6152 21.9662 12.3974C21.9079 12.1797 21.7654 11.994 21.5702 11.8813L21.1452 12.6174ZM19.1452 16.0815L18.7202 16.8176C19.1268 17.0523 19.6466 16.913 19.8813 16.5065L19.1452 16.0815ZM14.16 16.7018L13.5489 16.111L14.16 16.7018ZM13.0959 17.8023L13.707 18.3932L13.707 18.3932L13.0959 17.8023ZM13.5337 20.9246L13.9587 20.1885L13.5337 20.9246ZM21.2213 25.363L20.7963 26.0992L21.2213 25.363ZM24.1442 24.181L23.327 23.9473L23.327 23.9473L24.1442 24.181ZM24.5652 22.7093L23.748 22.4755L24.5652 22.7093ZM22.6093 18.0815L21.8732 17.6565C21.6385 18.063 21.7778 18.5829 22.1843 18.8176L22.6093 18.0815ZM24.6093 14.6174L25.0343 13.8813C24.839 13.7686 24.607 13.7381 24.3893 13.7964C24.1715 13.8548 23.9859 13.9972 23.8732 14.1924L24.6093 14.6174ZM25.5921 15.1849L25.1671 15.921L25.1671 15.921L25.5921 15.1849ZM26.9882 15.0435L26.4243 14.4075L26.4243 14.4075L26.9882 15.0435ZM27.4614 14.6239L28.0254 15.2598L27.4614 14.6239ZM20.5458 10.3208C20.5937 10.0867 20.8568 9.96837 21.0637 10.0878L21.9137 8.61557C20.7019 7.91595 19.1609 8.6091 18.8803 9.97994L20.5458 10.3208ZM20.419 10.9404L20.5458 10.3208L18.8803 9.97994L18.7536 10.5996L20.419 10.9404ZM20.5869 11.3136C20.4565 11.2383 20.3888 11.088 20.419 10.9404L18.7536 10.5996C18.5767 11.464 18.9728 12.3447 19.7369 12.7859L20.5869 11.3136ZM21.5702 11.8813L20.5869 11.3136L19.7369 12.7859L20.7202 13.3536L21.5702 11.8813ZM20.4091 12.1924L18.4091 15.6565L19.8813 16.5065L21.8813 13.0424L20.4091 12.1924ZM19.5702 15.3454L19.4606 15.2821L18.6106 16.7543L18.7202 16.8176L19.5702 15.3454ZM19.4606 15.2821C17.5332 14.1693 15.0959 14.5111 13.5489 16.111L14.7711 17.2927C15.7758 16.2536 17.3588 16.0316 18.6106 16.7543L19.4606 15.2821ZM13.5489 16.111L12.4849 17.2115L13.707 18.3932L14.7711 17.2927L13.5489 16.111ZM12.4849 17.2115C11.196 18.5444 11.503 20.7336 13.1087 21.6607L13.9587 20.1885C13.3108 19.8144 13.1869 18.931 13.707 18.3932L12.4849 17.2115ZM13.1087 21.6607L20.7963 26.0992L21.6463 24.6269L13.9587 20.1885L13.1087 21.6607ZM20.7963 26.0992C22.4021 27.0262 24.4515 26.1974 24.9614 24.4148L23.327 23.9473C23.1212 24.6666 22.2943 25.001 21.6463 24.6269L20.7963 26.0992ZM24.9614 24.4148L25.3824 22.9431L23.748 22.4755L23.327 23.9473L24.9614 24.4148ZM25.3824 22.9431C25.9945 20.8034 25.0718 18.5217 23.1445 17.409L22.2945 18.8812C23.5463 19.6039 24.1455 21.0858 23.748 22.4755L25.3824 22.9431ZM23.1445 17.409L23.0343 17.3454L22.1843 18.8176L22.2945 18.8812L23.1445 17.409ZM23.3454 18.5065L25.3454 15.0424L23.8732 14.1924L21.8732 17.6565L23.3454 18.5065ZM26.0171 14.4487L25.0343 13.8813L24.1843 15.3536L25.1671 15.921L26.0171 14.4487ZM26.4243 14.4075C26.3116 14.5075 26.1475 14.5241 26.0171 14.4487L25.1671 15.921C25.9312 16.3622 26.892 16.2649 27.5522 15.6794L26.4243 14.4075ZM26.8975 13.9879L26.4243 14.4075L27.5522 15.6794L28.0254 15.2598L26.8975 13.9879ZM26.8403 13.4229C27.0472 13.5424 27.0762 13.8294 26.8975 13.9879L28.0254 15.2598C29.0723 14.3315 28.9021 12.6503 27.6903 11.9507L26.8403 13.4229ZM21.0637 10.0878L26.8403 13.4229L27.6903 11.9507L21.9137 8.61557L21.0637 10.0878Z" fill="white"/>
</svg>
