<svg width="40" height="40" viewBox="0 0 40 40" fill="none" xmlns="http://www.w3.org/2000/svg">
<circle cx="20" cy="20" r="20" fill="#171719"/>
<circle cx="20" cy="20" r="19.5" stroke="white" stroke-opacity="0.2"/>
<path fill-rule="evenodd" clip-rule="evenodd" d="M18.8803 9.97989C19.1608 8.60906 20.7019 7.9159 21.9137 8.61553L27.6902 11.9506C28.902 12.6502 29.0723 14.3314 28.0253 15.2598L27.5521 15.6794C26.8919 16.2648 25.9312 16.3621 25.167 15.9209L24.9204 15.7785L23.7435 17.8169C25.2563 19.0221 25.9271 21.0388 25.3824 22.943L24.9614 24.4148C24.4515 26.1974 22.402 27.0262 20.7963 26.0991L17.819 24.3802L14.6691 29.8359C14.4344 30.2424 13.9146 30.3817 13.508 30.147C13.1015 29.9123 12.9622 29.3924 13.1969 28.9859L16.3468 23.5302L13.1087 21.6607C11.503 20.7336 11.196 18.5443 12.4848 17.2114L13.5489 16.1109C14.9255 14.6872 17.0071 14.2598 18.8071 14.967L19.984 12.9285L19.7369 12.7858C18.9727 12.3447 18.5766 11.464 18.7535 10.5995L18.8803 9.97989Z" fill="url(#paint0_linear_426_2787)"/>
<path fill-rule="evenodd" clip-rule="evenodd" d="M23.9845 18.022L18.7414 14.9417C16.9567 14.2703 14.9089 14.7045 13.5491 16.1109L12.485 17.2114C11.1962 18.5443 11.5032 20.7336 13.1089 21.6606L16.347 23.5301L13.1971 28.9859C12.9624 29.3924 13.1017 29.9123 13.5082 30.147C13.9148 30.3817 14.4346 30.2424 14.6693 29.8359L17.8192 24.3801L20.7965 26.0991C22.4022 27.0261 24.4517 26.1974 24.9616 24.4147L25.3826 22.943C25.8975 21.143 25.3263 19.2425 23.9845 18.022Z" fill="url(#paint1_linear_426_2787)" style="mix-blend-mode:overlay"/>
<path fill-rule="evenodd" clip-rule="evenodd" d="M23.9845 18.022L18.7414 14.9417C16.9567 14.2703 14.9089 14.7045 13.5491 16.1109L12.485 17.2114C11.1962 18.5443 11.5032 20.7336 13.1089 21.6606L16.347 23.5301L13.1971 28.9859C12.9624 29.3924 13.1017 29.9123 13.5082 30.147C13.9148 30.3817 14.4346 30.2424 14.6693 29.8359L17.8192 24.3801L20.7965 26.0991C22.4022 27.0261 24.4517 26.1974 24.9616 24.4147L25.3826 22.943C25.8975 21.143 25.3263 19.2425 23.9845 18.022Z" fill="url(#paint2_linear_426_2787)" style="mix-blend-mode:overlay"/>
<path fill-rule="evenodd" clip-rule="evenodd" d="M23.9845 18.022L18.7414 14.9417C16.9567 14.2703 14.9089 14.7045 13.5491 16.1109L12.485 17.2114C11.1962 18.5443 11.5032 20.7336 13.1089 21.6606L16.347 23.5301L13.1971 28.9859C12.9624 29.3924 13.1017 29.9123 13.5082 30.147C13.9148 30.3817 14.4346 30.2424 14.6693 29.8359L17.8192 24.3801L20.7965 26.0991C22.4022 27.0261 24.4517 26.1974 24.9616 24.4147L25.3826 22.943C25.8975 21.143 25.3263 19.2425 23.9845 18.022Z" fill="url(#paint3_linear_426_2787)"/>
<path fill-rule="evenodd" clip-rule="evenodd" d="M23.9845 18.022L18.7414 14.9417C16.9567 14.2703 14.9089 14.7045 13.5491 16.1109L12.485 17.2114C11.1962 18.5443 11.5032 20.7336 13.1089 21.6606L16.347 23.5301L13.1971 28.9859C12.9624 29.3924 13.1017 29.9123 13.5082 30.147C13.9148 30.3817 14.4346 30.2424 14.6693 29.8359L17.8192 24.3801L20.7965 26.0991C22.4022 27.0261 24.4517 26.1974 24.9616 24.4147L25.3826 22.943C25.8975 21.143 25.3263 19.2425 23.9845 18.022Z" fill="url(#paint4_linear_426_2787)"/>
<path fill-rule="evenodd" clip-rule="evenodd" d="M23.9845 18.022L18.7414 14.9417C16.9567 14.2703 14.9089 14.7045 13.5491 16.1109L12.485 17.2114C11.1962 18.5443 11.5032 20.7336 13.1089 21.6606L16.347 23.5301L13.1971 28.9859C12.9624 29.3924 13.1017 29.9123 13.5082 30.147C13.9148 30.3817 14.4346 30.2424 14.6693 29.8359L17.8192 24.3801L20.7965 26.0991C22.4022 27.0261 24.4517 26.1974 24.9616 24.4147L25.3826 22.943C25.8975 21.143 25.3263 19.2425 23.9845 18.022Z" fill="url(#paint5_linear_426_2787)"/>
<path fill-rule="evenodd" clip-rule="evenodd" d="M23.9845 18.022L18.7414 14.9417C16.9567 14.2703 14.9089 14.7045 13.5491 16.1109L12.485 17.2114C11.1962 18.5443 11.5032 20.7336 13.1089 21.6606L16.347 23.5301L13.1971 28.9859C12.9624 29.3924 13.1017 29.9123 13.5082 30.147C13.9148 30.3817 14.4346 30.2424 14.6693 29.8359L17.8192 24.3801L20.7965 26.0991C22.4022 27.0261 24.4517 26.1974 24.9616 24.4147L25.3826 22.943C25.8975 21.143 25.3263 19.2425 23.9845 18.022Z" fill="url(#paint6_radial_426_2787)"/>
<path fill-rule="evenodd" clip-rule="evenodd" d="M23.9845 18.022L18.7414 14.9417C16.9567 14.2703 14.9089 14.7045 13.5491 16.1109L12.485 17.2114C11.1962 18.5443 11.5032 20.7336 13.1089 21.6606L16.347 23.5301L13.1971 28.9859C12.9624 29.3924 13.1017 29.9123 13.5082 30.147C13.9148 30.3817 14.4346 30.2424 14.6693 29.8359L17.8192 24.3801L20.7965 26.0991C22.4022 27.0261 24.4517 26.1974 24.9616 24.4147L25.3826 22.943C25.8975 21.143 25.3263 19.2425 23.9845 18.022Z" fill="url(#paint7_radial_426_2787)" fill-opacity="0.4"/>
<path fill-rule="evenodd" clip-rule="evenodd" d="M18.8805 9.97989C19.161 8.60906 20.7021 7.9159 21.9138 8.61552L27.6904 11.9506C28.9022 12.6502 29.0724 14.3314 28.0255 15.2598L27.5523 15.6794C26.9481 16.2151 26.0923 16.3421 25.3657 16.0217L19.5001 12.6001L19.4605 12.5944C18.8803 12.118 18.5995 11.3526 18.7537 10.5995L18.8805 9.97989Z" fill="url(#paint8_linear_426_2787)"/>
<path fill-rule="evenodd" clip-rule="evenodd" d="M18.8805 9.97989C19.161 8.60906 20.7021 7.9159 21.9138 8.61552L27.6904 11.9506C28.9022 12.6502 29.0724 14.3314 28.0255 15.2598L27.5523 15.6794C26.9481 16.2151 26.0923 16.3421 25.3657 16.0217L19.5001 12.6001L19.4605 12.5944C18.8803 12.118 18.5995 11.3526 18.7537 10.5995L18.8805 9.97989Z" fill="url(#paint9_linear_426_2787)"/>
<path fill-rule="evenodd" clip-rule="evenodd" d="M18.8805 9.97989C19.161 8.60906 20.7021 7.9159 21.9138 8.61552L27.6904 11.9506C28.9022 12.6502 29.0724 14.3314 28.0255 15.2598L27.5523 15.6794C26.9481 16.2151 26.0923 16.3421 25.3657 16.0217L19.5001 12.6001L19.4605 12.5944C18.8803 12.118 18.5995 11.3526 18.7537 10.5995L18.8805 9.97989Z" fill="url(#paint10_linear_426_2787)"/>
<path fill-rule="evenodd" clip-rule="evenodd" d="M18.8805 9.97989C19.161 8.60906 20.7021 7.9159 21.9138 8.61552L27.6904 11.9506C28.9022 12.6502 29.0724 14.3314 28.0255 15.2598L27.5523 15.6794C26.9481 16.2151 26.0923 16.3421 25.3657 16.0217L19.5001 12.6001L19.4605 12.5944C18.8803 12.118 18.5995 11.3526 18.7537 10.5995L18.8805 9.97989Z" fill="url(#paint11_linear_426_2787)"/>
<path fill-rule="evenodd" clip-rule="evenodd" d="M18.8805 9.97989C19.161 8.60906 20.7021 7.9159 21.9138 8.61552L27.6904 11.9506C28.9022 12.6502 29.0724 14.3314 28.0255 15.2598L27.5523 15.6794C26.9481 16.2151 26.0923 16.3421 25.3657 16.0217L19.5001 12.6001L19.4605 12.5944C18.8803 12.118 18.5995 11.3526 18.7537 10.5995L18.8805 9.97989Z" fill="url(#paint12_linear_426_2787)"/>
<path fill-rule="evenodd" clip-rule="evenodd" d="M18.8805 9.97989C19.161 8.60906 20.7021 7.9159 21.9138 8.61552L27.6904 11.9506C28.9022 12.6502 29.0724 14.3314 28.0255 15.2598L27.5523 15.6794C26.9481 16.2151 26.0923 16.3421 25.3657 16.0217L19.5001 12.6001L19.4605 12.5944C18.8803 12.118 18.5995 11.3526 18.7537 10.5995L18.8805 9.97989Z" fill="url(#paint13_linear_426_2787)"/>
<path fill-rule="evenodd" clip-rule="evenodd" d="M18.8805 9.97989C19.161 8.60906 20.7021 7.9159 21.9138 8.61552L27.6904 11.9506C28.9022 12.6502 29.0724 14.3314 28.0255 15.2598L27.5523 15.6794C26.9481 16.2151 26.0923 16.3421 25.3657 16.0217L19.5001 12.6001L19.4605 12.5944C18.8803 12.118 18.5995 11.3526 18.7537 10.5995L18.8805 9.97989Z" fill="url(#paint14_linear_426_2787)"/>
<path fill-rule="evenodd" clip-rule="evenodd" d="M18.8805 9.97989C19.161 8.60906 20.7021 7.9159 21.9138 8.61552L27.6904 11.9506C28.9022 12.6502 29.0724 14.3314 28.0255 15.2598L27.5523 15.6794C26.9481 16.2151 26.0923 16.3421 25.3657 16.0217L19.5001 12.6001L19.4605 12.5944C18.8803 12.118 18.5995 11.3526 18.7537 10.5995L18.8805 9.97989Z" fill="url(#paint15_linear_426_2787)"/>
<defs>
<linearGradient id="paint0_linear_426_2787" x1="24.8025" y1="10.2834" x2="13.3776" y2="30.0717" gradientUnits="userSpaceOnUse">
<stop stop-color="#FF852D" stop-opacity="0.972549"/>
<stop offset="0.705" stop-color="#EC4700"/>
</linearGradient>
<linearGradient id="paint1_linear_426_2787" x1="14" y1="15" x2="15" y2="16.5" gradientUnits="userSpaceOnUse">
<stop stop-color="#FFBC11"/>
<stop offset="1" stop-color="#FFA620" stop-opacity="0"/>
</linearGradient>
<linearGradient id="paint2_linear_426_2787" x1="16.5" y1="14.5" x2="16.5" y2="15.5" gradientUnits="userSpaceOnUse">
<stop stop-color="#FFBC11"/>
<stop offset="1" stop-color="#FFA620" stop-opacity="0"/>
</linearGradient>
<linearGradient id="paint3_linear_426_2787" x1="23.5" y1="23.5" x2="27" y2="25" gradientUnits="userSpaceOnUse">
<stop stop-color="#EC1C1C" stop-opacity="0"/>
<stop offset="1" stop-color="#EC1C1C"/>
</linearGradient>
<linearGradient id="paint4_linear_426_2787" x1="23.5" y1="20.5" x2="28" y2="19" gradientUnits="userSpaceOnUse">
<stop stop-color="#EC1C1C" stop-opacity="0"/>
<stop offset="1" stop-color="#EC1C1C"/>
</linearGradient>
<linearGradient id="paint5_linear_426_2787" x1="15" y1="29" x2="16" y2="31.5" gradientUnits="userSpaceOnUse">
<stop stop-color="#EC1C1C" stop-opacity="0"/>
<stop offset="1" stop-color="#EC1C1C"/>
</linearGradient>
<radialGradient id="paint6_radial_426_2787" cx="0" cy="0" r="1" gradientUnits="userSpaceOnUse" gradientTransform="translate(16 15.5) rotate(79.9093) scale(14.9929 13.3214)">
<stop stop-color="#FFBC11" stop-opacity="0.5"/>
<stop offset="0.25553" stop-color="#FFBC11" stop-opacity="0"/>
</radialGradient>
<radialGradient id="paint7_radial_426_2787" cx="0" cy="0" r="1" gradientUnits="userSpaceOnUse" gradientTransform="translate(22 28) rotate(-118.301) scale(7.38241 6.55938)">
<stop stop-color="#EC1C1C"/>
<stop offset="1" stop-color="#EC1C1C" stop-opacity="0"/>
</radialGradient>
<linearGradient id="paint8_linear_426_2787" x1="19.5" y1="8.5" x2="28" y2="15.5" gradientUnits="userSpaceOnUse">
<stop offset="0.0269604" stop-color="#FFBC11"/>
<stop offset="0.0999551" stop-color="#FF852D" stop-opacity="0"/>
</linearGradient>
<linearGradient id="paint9_linear_426_2787" x1="24.5" y1="9.5" x2="24" y2="10.5" gradientUnits="userSpaceOnUse">
<stop stop-color="#FFBC11"/>
<stop offset="1" stop-color="#FFA620" stop-opacity="0"/>
</linearGradient>
<linearGradient id="paint10_linear_426_2787" x1="22" y1="8" x2="22" y2="15.5" gradientUnits="userSpaceOnUse">
<stop offset="0.0315866" stop-color="#FFBC11"/>
<stop offset="0.149856" stop-color="#FFA620" stop-opacity="0"/>
</linearGradient>
<linearGradient id="paint11_linear_426_2787" x1="18.5" y1="12" x2="26.5" y2="10" gradientUnits="userSpaceOnUse">
<stop stop-color="#FFBC11"/>
<stop offset="0.150729" stop-color="#FFA620" stop-opacity="0"/>
</linearGradient>
<linearGradient id="paint12_linear_426_2787" x1="23.7137" y1="8.33936" x2="26.5" y2="17" gradientUnits="userSpaceOnUse">
<stop offset="0.856797" stop-color="#EC1C1C" stop-opacity="0"/>
<stop offset="1" stop-color="#EC1C1C"/>
</linearGradient>
<linearGradient id="paint13_linear_426_2787" x1="22" y1="9.5" x2="29" y2="15.5" gradientUnits="userSpaceOnUse">
<stop offset="0.841196" stop-color="#EC1C1C" stop-opacity="0"/>
<stop offset="1" stop-color="#EC1C1C"/>
</linearGradient>
<linearGradient id="paint14_linear_426_2787" x1="20" y1="12.5" x2="30" y2="13" gradientUnits="userSpaceOnUse">
<stop offset="0.826383" stop-color="#EC1C1C" stop-opacity="0"/>
<stop offset="1" stop-color="#EC1C1C"/>
</linearGradient>
<linearGradient id="paint15_linear_426_2787" x1="18.5" y1="10" x2="29" y2="13" gradientUnits="userSpaceOnUse">
<stop stop-color="#FFBC11"/>
<stop offset="0.105814" stop-color="#FFA620" stop-opacity="0"/>
</linearGradient>
</defs>
</svg>
