<svg width="40" height="40" viewBox="0 0 40 40" fill="none" xmlns="http://www.w3.org/2000/svg">
<circle cx="20" cy="20" r="20" fill="#171719"/>
<circle cx="20" cy="20" r="19.5" stroke="white" stroke-opacity="0.2"/>
<path d="M19.9998 31.125C19.5123 31.125 19.0248 30.9375 18.6498 30.6C17.7873 29.85 16.9998 29.175 16.2873 28.575C14.1498 26.7375 12.2748 25.2 10.9623 23.625C9.4248 21.75 8.6748 19.9875 8.6748 18C8.6748 16.0875 9.3498 14.2875 10.5498 12.975C11.7873 11.625 13.5123 10.875 15.3498 10.875C16.7373 10.875 18.0498 11.325 19.1748 12.1875C19.4748 12.4125 19.7373 12.6375 19.9998 12.9375C20.2623 12.675 20.5248 12.4125 20.8248 12.1875C21.9498 11.325 23.2248 10.875 24.6498 10.875C26.5248 10.875 28.2123 11.625 29.4498 12.975C30.6873 14.2875 31.3248 16.0875 31.3248 18C31.3248 19.9875 30.6123 21.75 29.0373 23.625C27.7248 25.2 25.8498 26.775 23.7123 28.575C22.9998 29.175 22.1748 29.8875 21.3123 30.6C20.9748 30.9375 20.4873 31.125 19.9998 31.125ZM15.3498 12.5625C13.9623 12.5625 12.6873 13.125 11.7498 14.1C10.8498 15.1125 10.3623 16.5 10.3623 18C10.3623 19.5375 10.9623 21 12.2373 22.5375C13.4748 24 15.2748 25.5375 17.3373 27.3C18.0498 27.9 18.8748 28.6125 19.7373 29.3625C19.8873 29.475 20.1123 29.475 20.2623 29.3625C21.1248 28.6125 21.9498 27.9375 22.6623 27.3C24.7623 25.5 26.5623 24 27.7623 22.5375C29.0373 21 29.6373 19.5375 29.6373 18C29.6373 16.5 29.1123 15.1125 28.2123 14.1375C27.2748 13.125 25.9998 12.5625 24.6498 12.5625C23.6373 12.5625 22.6998 12.9 21.8748 13.5C21.5373 13.7625 21.2373 14.0625 20.9373 14.4C20.7123 14.6625 20.3748 14.85 19.9998 14.85C19.6248 14.85 19.3248 14.7 19.0623 14.4C18.7623 14.0625 18.4623 13.7625 18.1248 13.5C17.3373 12.9 16.3998 12.5625 15.3498 12.5625Z" fill="white"/>
</svg>
